<svg id="Layer_1" enable-background="new 0 0 512 512" viewBox="0 0 512 512" xmlns="http://www.w3.org/2000/svg"><circle cx="256" cy="256" fill="#ec407a" r="256" style="fill: rgb(237, 37, 83);"></circle><g><g><g id="XMLID_1_" fill="#fffffe"><path d="m166.9 386.3v14.2h-34.5c-12.8 0-23.1-10.4-23.1-23.1v-32.3h14.2v32.3c0 4.9 4 8.9 8.9 8.9z" fill="#fffffe"></path><path d="m402.8 345.1v32.3c0 12.8-10.4 23.1-23.1 23.1h-34.5v-14.2h34.5c4.9 0 8.9-4 8.9-8.9v-32.3z" fill="#fffffe"></path><path d="m402.8 134.6v32.3h-14.2v-32.3c0-4.9-4-8.9-8.9-8.9h-34.5v-14.2h34.5c12.7-.1 23.1 10.3 23.1 23.1z" fill="#fffffe"></path><path d="m166.9 111.4v14.2h-34.5c-4.9 0-8.9 4-8.9 8.9v32.3h-14.3v-32.3c0-12.7 10.4-23.1 23.1-23.1z" fill="#fffffe"></path><path d="m385.1 173.9c-1.9 0-3.5-1.6-3.5-3.5v-35.8c0-1-.9-1.9-1.9-1.9h-38c-1.9 0-3.5-1.6-3.5-3.5v-7.2h-164.3v7.1c0 1.9-1.6 3.5-3.5 3.5h-38c-1 0-1.9.9-1.9 1.9v35.8c0 1.9-1.6 3.5-3.5 3.5h-7.1v164.3h7.1c1.9 0 3.5 1.6 3.5 3.5v35.8c0 1 .9 1.9 1.9 1.9h38c1.9 0 3.5 1.6 3.5 3.5v7.1h164.3v-7.1c0-1.9 1.6-3.5 3.5-3.5h38c1 0 1.9-.9 1.9-1.9v-35.8c0-1.9 1.6-3.5 3.5-3.5h7.1v-164.2zm-106-17.3h71c1.9 0 3.5 1.6 3.5 3.5s-1.5 3.5-3.5 3.5h-71c-1.9 0-3.5-1.6-3.5-3.5s1.6-3.5 3.5-3.5zm0 24.2h71c1.9 0 3.5 1.6 3.5 3.5s-1.5 3.5-3.5 3.5h-71c-1.9 0-3.5-1.6-3.5-3.5s1.6-3.5 3.5-3.5zm0 24.2h71c1.9 0 3.5 1.6 3.5 3.5s-1.5 3.5-3.5 3.5h-71c-1.9 0-3.5-1.6-3.5-3.5.1-1.9 1.6-3.5 3.5-3.5zm74.5 27.7c0 1.9-1.5 3.5-3.5 3.5h-29c-1.9 0-3.5-1.6-3.5-3.5s1.6-3.5 3.5-3.5h29c1.9 0 3.5 1.6 3.5 3.5zm-199.5-47.4c0-17.8 14.5-32.3 32.3-32.3s32.3 14.5 32.3 32.3v48.2c0 1.9-1.6 3.5-3.5 3.5s-3.5-1.6-3.5-3.5v-29.3h-50.6v29.3c0 1.9-1.6 3.5-3.5 3.5s-3.5-1.6-3.5-3.5zm168.1 173.6h-132.4c-1.9 0-3.5-1.6-3.5-3.5s1.6-3.5 3.5-3.5h132.3c1.9 0 3.5 1.6 3.5 3.5 0 2-1.5 3.5-3.4 3.5zm32.2-30.4h-196.8c-1.9 0-3.5-1.6-3.5-3.5s1.5-3.5 3.5-3.5h196.8c1.9 0 3.5 1.5 3.5 3.5 0 1.9-1.6 3.5-3.5 3.5zm0-30.5h-196.8c-1.9 0-3.5-1.6-3.5-3.5s1.5-3.5 3.5-3.5h196.8c1.9 0 3.5 1.6 3.5 3.5 0 2-1.6 3.5-3.5 3.5zm0-30.4h-196.8c-1.9 0-3.5-1.6-3.5-3.5s1.5-3.5 3.5-3.5h196.8c1.9 0 3.5 1.6 3.5 3.5s-1.6 3.5-3.5 3.5z" fill="#fffffe"></path><path d="m211.7 185.3v11.9h-50.6v-11.9c0-14 11.4-25.3 25.3-25.3s25.3 11.4 25.3 25.3z" fill="#fffffe"></path></g></g></g></svg>